<svg width="30" height="24" viewBox="0 0 30 24" fill="none" xmlns="http://www.w3.org/2000/svg">
<path d="M0.638672 7.34403V20.3907C0.639023 21.3478 1.0167 22.2657 1.68871 22.9425C2.36071 23.6193 3.27204 23.9996 4.22239 24H26.4158C27.3661 23.9996 28.2774 23.6193 28.9494 22.9425C29.6214 22.2657 29.9991 21.3478 29.9995 20.3907V7.34403C29.9988 6.43298 29.6388 5.5595 28.9988 4.91567C28.3588 4.27183 27.4911 3.91035 26.5865 3.91071H21.8206L21.7067 3.40937C21.4862 2.43729 20.9433 1.5699 20.1677 0.950152C19.3921 0.330407 18.43 -0.00470416 17.4399 4.98939e-05H13.1916C12.2022 -0.00228422 11.2412 0.333722 10.4661 0.953076C9.69097 1.57243 9.14755 2.43844 8.92478 3.40937L8.81092 3.91071H4.04499C3.14187 3.91317 2.27648 4.27577 1.63813 4.91919C0.999775 5.5626 0.640419 6.43446 0.638672 7.34403H0.638672ZM9.39872 5.38937C9.56462 5.38957 9.72564 5.33291 9.85532 5.22871C9.985 5.12452 10.0756 4.97899 10.1123 4.81604L10.3585 3.74137C10.5055 3.09568 10.8661 2.51954 11.3812 2.10761C11.8963 1.69569 12.5352 1.4725 13.1929 1.47471H17.4412C18.099 1.4725 18.7379 1.69569 19.253 2.10761C19.7681 2.51954 20.1287 3.09568 20.2756 3.74137L20.5219 4.81604C20.5594 4.97853 20.6503 5.12352 20.7798 5.22756C20.9093 5.3316 21.0698 5.38861 21.2354 5.38937H26.5865C26.8414 5.38937 27.0938 5.43993 27.3292 5.53816C27.5647 5.63639 27.7787 5.78037 27.9589 5.96187C28.1391 6.14338 28.2821 6.35886 28.3796 6.59601C28.4771 6.83316 28.5273 7.08734 28.5273 7.34403V20.3907C28.5273 20.9565 28.3042 21.4991 27.9069 21.8992C27.5097 22.2992 26.9709 22.524 26.4091 22.524H4.22239C3.66061 22.524 3.12184 22.2992 2.7246 21.8992C2.32736 21.4991 2.1042 20.9565 2.1042 20.3907V7.34403C2.1042 6.82562 2.30867 6.32845 2.67264 5.96187C3.03661 5.5953 3.53026 5.38937 4.04499 5.38937H9.39872Z" fill="#A5BCD3"/>
<path d="M5.60536 9.53457C6.14787 9.53457 6.58767 9.09163 6.58767 8.54524C6.58767 7.99885 6.14787 7.55591 5.60536 7.55591C5.06284 7.55591 4.62305 7.99885 4.62305 8.54524C4.62305 9.09163 5.06284 9.53457 5.60536 9.53457Z" fill="#A5BCD3"/>
<path d="M15.3186 20.2055C16.538 20.2055 17.7299 19.8414 18.7438 19.1591C19.7577 18.4768 20.5479 17.507 21.0145 16.3724C21.4812 15.2378 21.6033 13.9893 21.3654 12.7848C21.1275 11.5803 20.5403 10.4739 19.6781 9.60553C18.8159 8.73715 17.7173 8.14576 16.5214 7.90618C15.3254 7.66659 14.0858 7.78956 12.9592 8.25953C11.8327 8.7295 10.8698 9.52535 10.1923 10.5465C9.51489 11.5676 9.15332 12.7681 9.15332 13.9962C9.15612 15.6421 9.80656 17.2199 10.9622 18.3837C12.1178 19.5476 13.6843 20.2027 15.3186 20.2055ZM15.3186 9.26421C16.2476 9.26421 17.1557 9.54165 17.9281 10.0615C18.7006 10.5813 19.3026 11.3201 19.6581 12.1845C20.0136 13.0489 20.1067 14.0001 19.9254 14.9178C19.7442 15.8354 19.2968 16.6783 18.6399 17.3399C17.983 18.0015 17.1461 18.4521 16.2349 18.6346C15.3238 18.8171 14.3794 18.7235 13.5211 18.3654C12.6628 18.0074 11.9292 17.401 11.4131 16.6231C10.897 15.8451 10.6215 14.9305 10.6215 13.9949C10.6236 12.7409 11.1191 11.5388 11.9996 10.6521C12.88 9.76541 14.0735 9.26632 15.3186 9.26421Z" fill="#A5BCD3"/>
</svg>
