<svg width="24" height="24" viewBox="0 0 24 24" fill="none" xmlns="http://www.w3.org/2000/svg">
<path d="M0 12C0 9.62663 0.703788 7.30655 2.02236 5.33316C3.34094 3.35977 5.21509 1.8217 7.4078 0.913451C9.60051 0.00519943 12.0133 -0.232441 14.3411 0.230582C16.6689 0.693605 18.8071 1.83649 20.4853 3.51472C22.1635 5.19295 23.3064 7.33115 23.7694 9.65892C24.2324 11.9867 23.9948 14.3995 23.0866 16.5922C22.1783 18.7849 20.6402 20.6591 18.6668 21.9776C16.6935 23.2962 14.3734 24 12 24C8.81854 23.9963 5.76845 22.7308 3.51881 20.4812C1.26918 18.2316 0.00370522 15.1815 0 12H0ZM1.3 12C1.29818 13.7269 1.71691 15.4282 2.52 16.957C3.62967 19.0771 5.418 20.7641 7.59921 21.7483C9.78041 22.7325 12.2286 22.9571 14.5525 22.3863C16.8763 21.8155 18.9418 20.4821 20.4188 18.5993C21.8957 16.7165 22.6989 14.393 22.7 12C22.7017 10.4029 22.3439 8.82592 21.653 7.38601C20.6062 5.1971 18.8466 3.42896 16.6628 2.37163C14.479 1.31431 12.0006 1.03059 9.63435 1.56702C7.26808 2.10345 5.15437 3.42818 3.64 5.32388C2.12563 7.21958 1.30051 9.57369 1.3 12ZM11.14 18.6C10.0478 18.4678 8.99777 18.0979 8.06382 17.5164C7.12986 16.9348 6.33462 16.1558 5.734 15.234L6.824 14.534C7.38248 15.4001 8.14921 16.1123 9.05406 16.6055C9.95891 17.0986 10.973 17.357 12.0035 17.357C13.034 17.357 14.0481 17.0986 14.9529 16.6055C15.8578 16.1123 16.6245 15.4001 17.183 14.534L18.273 15.234C17.5899 16.2806 16.6571 17.1407 15.5587 17.7368C14.4603 18.333 13.2308 18.6465 11.981 18.649C11.699 18.6489 11.4172 18.6325 11.137 18.6H11.14ZM14.814 9.32401C14.814 9.06689 14.8902 8.81555 15.0331 8.60176C15.1759 8.38798 15.379 8.22136 15.6165 8.12296C15.8541 8.02457 16.1154 7.99882 16.3676 8.04898C16.6198 8.09914 16.8514 8.22296 17.0332 8.40477C17.215 8.58658 17.3389 8.81821 17.389 9.07039C17.4392 9.32256 17.4134 9.58395 17.315 9.82149C17.2166 10.059 17.05 10.2621 16.8362 10.4049C16.6225 10.5478 16.3711 10.624 16.114 10.624C15.943 10.6244 15.7737 10.5911 15.6156 10.5259C15.4575 10.4608 15.3139 10.3651 15.1928 10.2443C15.0718 10.1236 14.9758 9.98011 14.9102 9.82219C14.8447 9.66427 14.811 9.49498 14.811 9.32401H14.814ZM6.787 9.32401C6.787 9.06689 6.86324 8.81555 7.00609 8.60176C7.14894 8.38798 7.35197 8.22136 7.58951 8.12296C7.82706 8.02457 8.08844 7.99882 8.34062 8.04898C8.59279 8.09914 8.82443 8.22296 9.00624 8.40477C9.18805 8.58658 9.31186 8.81821 9.36202 9.07039C9.41218 9.32256 9.38644 9.58395 9.28804 9.82149C9.18965 10.059 9.02303 10.2621 8.80924 10.4049C8.59546 10.5478 8.34412 10.624 8.087 10.624C7.91603 10.6244 7.74666 10.5911 7.58859 10.5259C7.43052 10.4608 7.28686 10.3651 7.16582 10.2443C7.04479 10.1236 6.94876 9.98011 6.88324 9.82219C6.81772 9.66427 6.784 9.49498 6.784 9.32401H6.787Z" fill="#A5BCD3"/>
</svg>
