<svg width="30" height="24" viewBox="0 0 30 24" fill="none" xmlns="http://www.w3.org/2000/svg">
<path d="M3.09641 24C2.67878 23.9893 2.26734 23.8957 1.88565 23.7247C1.50396 23.5536 1.1595 23.3085 0.872008 23.0032C0.584511 22.6979 0.359615 22.3385 0.210189 21.9456C0.0607638 21.5527 -0.0102564 21.1339 0.00119364 20.7133V3.48C0.00108943 3.05272 0.0745493 2.62866 0.218309 2.22667C0.357005 1.83901 0.560751 1.47822 0.820671 1.16C1.07509 0.843674 1.38576 0.577812 1.73679 0.376C2.09337 0.172303 2.48761 0.0443388 2.89518 0L26.4787 0C27.3439 0.0885078 28.148 0.489871 28.7419 1.12973C29.3359 1.76959 29.6794 2.60458 29.7089 3.48V18.3533C29.7089 18.3373 29.7235 18.32 29.7526 18.3V20.0333L29.7089 20.0427V20.7173C29.7094 21.1657 29.6104 21.6085 29.419 22.0133C29.2311 22.4093 28.9669 22.7637 28.6419 23.056C27.9684 23.6631 27.0965 23.9991 26.1927 24H3.09641ZM8.7467 12.4773C8.53518 12.5486 8.33696 12.655 8.16022 12.792L1.67325 17.592V20.7093C1.67325 20.752 1.67325 20.7947 1.67325 20.8427C1.68629 21.236 1.85058 21.6089 2.13143 21.8825C2.41228 22.1562 2.78772 22.3092 3.17849 22.3093H26.1927C26.6534 22.3072 27.0997 22.1473 27.4583 21.856C27.6339 21.7206 27.7769 21.5471 27.8766 21.3483C27.9763 21.1495 28.0302 20.9307 28.0342 20.708V12.5333L19.7918 17.3333C19.1993 17.6921 18.5211 17.8815 17.8298 17.8813H17.7835C16.8783 17.8658 16.0062 17.5361 15.3144 16.948L10.755 12.9173C10.4906 12.6687 10.1644 12.4966 9.81093 12.4192C9.45746 12.3418 9.08978 12.3618 8.7467 12.4773ZM9.40864 10.7053C10.2991 10.7048 11.1601 11.026 11.8353 11.6107L16.4371 15.6973C16.7757 15.9869 17.1955 16.1628 17.6381 16.2005C18.0807 16.2383 18.524 16.136 18.9061 15.908L28.0263 10.5573V3.48C27.9956 3.00249 27.7908 2.55326 27.451 2.21875C27.1113 1.88423 26.6608 1.68807 26.1861 1.668H3.2235C3.00427 1.66745 2.78814 1.72004 2.59334 1.82133C2.40478 1.91919 2.23843 2.0554 2.10483 2.22133C1.96653 2.39407 1.85943 2.58994 1.78842 2.8C1.71384 3.017 1.6758 3.24503 1.67589 3.47467V15.484L7.19777 11.4427C7.8387 10.9636 8.61576 10.705 9.41393 10.7053H9.40864ZM13.9336 7.86667C13.9336 7.16652 14.1398 6.4821 14.526 5.89995C14.9122 5.3178 15.4612 4.86407 16.1034 4.59613C16.7457 4.3282 17.4524 4.25809 18.1342 4.39469C18.8161 4.53128 19.4424 4.86843 19.9339 5.36351C20.4255 5.85859 20.7602 6.48935 20.8959 7.17605C21.0315 7.86274 20.9619 8.57452 20.6958 9.22137C20.4298 9.86822 19.9793 10.4211 19.4013 10.8101C18.8233 11.199 18.1437 11.4067 17.4485 11.4067C16.5163 11.4067 15.6223 11.0337 14.9631 10.3698C14.304 9.70595 13.9336 8.80553 13.9336 7.86667ZM15.607 7.86667C15.6067 8.2336 15.7146 8.59236 15.9168 8.89757C16.1191 9.20277 16.4066 9.44069 16.7432 9.58123C17.0797 9.72177 17.4501 9.75861 17.8075 9.68709C18.1648 9.61557 18.493 9.43891 18.7507 9.17945C19.0083 8.91999 19.1837 8.5894 19.2547 8.2295C19.3257 7.86961 19.2891 7.49658 19.1496 7.15763C19.0101 6.81868 18.7738 6.52904 18.4708 6.32535C18.1677 6.12165 17.8115 6.01307 17.4472 6.01333C16.9591 6.01333 16.4911 6.20859 16.146 6.55616C15.8009 6.90373 15.607 7.37513 15.607 7.86667Z" fill="#A5BCD3"/>
</svg>
