<svg width="1440" height="839" viewBox="0 0 1440 839" fill="none" xmlns="http://www.w3.org/2000/svg">
<path d="M0 0H1440V742.5C1440 742.5 1213.5 838.5 720 838.5C226.5 838.5 0 742.5 0 742.5V0Z" fill="#F8FFFA"/>
<mask id="mask0_2_637" style="mask-type:alpha" maskUnits="userSpaceOnUse" x="0" y="0" width="1440" height="839">
<path d="M0 0H1440V742.5C1440 742.5 1213.5 838.5 720 838.5C226.5 838.5 0 742.5 0 742.5V0Z" fill="#C7FFDB"/>
</mask>
<g mask="url(#mask0_2_637)">
<circle cx="789.041" cy="313.017" r="5.67164" transform="rotate(-8.81526 789.041 313.017)" fill="#DCE2EE"/>
<circle cx="799.471" cy="380.272" r="5.67164" transform="rotate(-8.81526 799.471 380.272)" fill="#DCE2EE"/>
<circle cx="809.901" cy="447.528" r="5.67164" transform="rotate(-8.81526 809.901 447.528)" fill="#DCE2EE"/>
<circle cx="820.331" cy="514.784" r="5.67164" transform="rotate(-8.81526 820.331 514.784)" fill="#DCE2EE"/>
<circle cx="830.761" cy="582.039" r="5.67164" transform="rotate(-8.81526 830.761 582.039)" fill="#DCE2EE"/>
<circle cx="841.191" cy="649.295" r="5.67164" transform="rotate(-8.81526 841.191 649.295)" fill="#DCE2EE"/>
<circle cx="851.622" cy="716.551" r="5.67164" transform="rotate(-8.81526 851.622 716.551)" fill="#DCE2EE"/>
<circle cx="856.297" cy="302.586" r="5.67164" transform="rotate(-8.81526 856.297 302.586)" fill="#DCE2EE"/>
<circle cx="866.727" cy="369.842" r="5.67164" transform="rotate(-8.81526 866.727 369.842)" fill="#DCE2EE"/>
<circle cx="877.157" cy="437.098" r="5.67164" transform="rotate(-8.81526 877.157 437.098)" fill="#DCE2EE"/>
<circle cx="887.587" cy="504.353" r="5.67164" transform="rotate(-8.81526 887.587 504.353)" fill="#DCE2EE"/>
<circle cx="898.017" cy="571.609" r="5.67164" transform="rotate(-8.81526 898.017 571.609)" fill="#DCE2EE"/>
<circle cx="908.447" cy="638.865" r="5.67164" transform="rotate(-8.81526 908.447 638.865)" fill="#DCE2EE"/>
<circle cx="918.877" cy="706.121" r="5.67164" transform="rotate(-8.81526 918.877 706.121)" fill="#DCE2EE"/>
<circle cx="923.553" cy="292.156" r="5.67164" transform="rotate(-8.81526 923.553 292.156)" fill="#DCE2EE"/>
<circle cx="933.983" cy="359.412" r="5.67164" transform="rotate(-8.81526 933.983 359.412)" fill="#DCE2EE"/>
<circle cx="944.413" cy="426.668" r="5.67164" transform="rotate(-8.81526 944.413 426.668)" fill="#DCE2EE"/>
<circle cx="954.843" cy="493.923" r="5.67164" transform="rotate(-8.81526 954.843 493.923)" fill="#DCE2EE"/>
<circle cx="965.273" cy="561.179" r="5.67164" transform="rotate(-8.81526 965.273 561.179)" fill="#DCE2EE"/>
<circle cx="975.703" cy="628.435" r="5.67164" transform="rotate(-8.81526 975.703 628.435)" fill="#DCE2EE"/>
<circle cx="986.133" cy="695.691" r="5.67164" transform="rotate(-8.81526 986.133 695.691)" fill="#DCE2EE"/>
<circle cx="990.808" cy="281.726" r="5.67164" transform="rotate(-8.81526 990.808 281.726)" fill="#DCE2EE"/>
<circle cx="1001.24" cy="348.982" r="5.67164" transform="rotate(-8.81526 1001.24 348.982)" fill="#DCE2EE"/>
<circle cx="1011.67" cy="416.238" r="5.67164" transform="rotate(-8.81526 1011.67 416.238)" fill="#DCE2EE"/>
<circle cx="1022.1" cy="483.493" r="5.67164" transform="rotate(-8.81526 1022.1 483.493)" fill="#DCE2EE"/>
<circle cx="1032.53" cy="550.749" r="5.67164" transform="rotate(-8.81526 1032.53 550.749)" fill="#DCE2EE"/>
<circle cx="1042.96" cy="618.005" r="5.67164" transform="rotate(-8.81526 1042.96 618.005)" fill="#DCE2EE"/>
<circle cx="1053.39" cy="685.26" r="5.67164" transform="rotate(-8.81526 1053.39 685.26)" fill="#DCE2EE"/>
<circle cx="1058.06" cy="271.296" r="5.67164" transform="rotate(-8.81526 1058.06 271.296)" fill="#DCE2EE"/>
<circle cx="1068.49" cy="338.552" r="5.67164" transform="rotate(-8.81526 1068.49 338.552)" fill="#DCE2EE"/>
<circle cx="1078.92" cy="405.807" r="5.67164" transform="rotate(-8.81526 1078.92 405.807)" fill="#DCE2EE"/>
<circle cx="1089.35" cy="473.063" r="5.67164" transform="rotate(-8.81526 1089.35 473.063)" fill="#DCE2EE"/>
<circle cx="1099.78" cy="540.319" r="5.67164" transform="rotate(-8.81526 1099.78 540.319)" fill="#DCE2EE"/>
<circle cx="1110.21" cy="607.575" r="5.67164" transform="rotate(-8.81526 1110.21 607.575)" fill="#DCE2EE"/>
<circle cx="1120.64" cy="674.83" r="5.67164" transform="rotate(-8.81526 1120.64 674.83)" fill="#DCE2EE"/>
<circle cx="1125.32" cy="260.866" r="5.67164" transform="rotate(-8.81526 1125.32 260.866)" fill="#DCE2EE"/>
<circle cx="1135.75" cy="328.122" r="5.67164" transform="rotate(-8.81526 1135.75 328.122)" fill="#DCE2EE"/>
<circle cx="1146.18" cy="395.378" r="5.67164" transform="rotate(-8.81526 1146.18 395.378)" fill="#DCE2EE"/>
<circle cx="1156.61" cy="462.633" r="5.67164" transform="rotate(-8.81526 1156.61 462.633)" fill="#DCE2EE"/>
<circle cx="1167.04" cy="529.889" r="5.67164" transform="rotate(-8.81526 1167.04 529.889)" fill="#DCE2EE"/>
<circle cx="1177.47" cy="597.145" r="5.67164" transform="rotate(-8.81526 1177.47 597.145)" fill="#DCE2EE"/>
<circle cx="1187.9" cy="664.4" r="5.67164" transform="rotate(-8.81526 1187.9 664.4)" fill="#DCE2EE"/>
<circle cx="1192.58" cy="250.436" r="5.67164" transform="rotate(-8.81526 1192.58 250.436)" fill="#DCE2EE"/>
<circle cx="1203.01" cy="317.692" r="5.67164" transform="rotate(-8.81526 1203.01 317.692)" fill="#DCE2EE"/>
<circle cx="1213.44" cy="384.947" r="5.67164" transform="rotate(-8.81526 1213.44 384.947)" fill="#DCE2EE"/>
<circle cx="1223.87" cy="452.203" r="5.67164" transform="rotate(-8.81526 1223.87 452.203)" fill="#DCE2EE"/>
<circle cx="1234.3" cy="519.459" r="5.67164" transform="rotate(-8.81526 1234.3 519.459)" fill="#DCE2EE"/>
<circle cx="1244.73" cy="586.714" r="5.67164" transform="rotate(-8.81526 1244.73 586.714)" fill="#DCE2EE"/>
<circle cx="1255.16" cy="653.97" r="5.67164" transform="rotate(-8.81526 1255.16 653.97)" fill="#DCE2EE"/>
<circle cx="1259.83" cy="240.005" r="5.67164" transform="rotate(-8.81526 1259.83 240.005)" fill="#DCE2EE"/>
<circle cx="1270.26" cy="307.262" r="5.67164" transform="rotate(-8.81526 1270.26 307.262)" fill="#DCE2EE"/>
<circle cx="1280.69" cy="374.517" r="5.67164" transform="rotate(-8.81526 1280.69 374.517)" fill="#DCE2EE"/>
<circle cx="1291.12" cy="441.773" r="5.67164" transform="rotate(-8.81526 1291.12 441.773)" fill="#DCE2EE"/>
<circle cx="1301.55" cy="509.029" r="5.67164" transform="rotate(-8.81526 1301.55 509.029)" fill="#DCE2EE"/>
<circle cx="1311.98" cy="576.285" r="5.67164" transform="rotate(-8.81526 1311.98 576.285)" fill="#DCE2EE"/>
<circle cx="1322.41" cy="643.54" r="5.67164" transform="rotate(-8.81526 1322.41 643.54)" fill="#DCE2EE"/>
<circle cx="1327.09" cy="229.576" r="5.67164" transform="rotate(-8.81526 1327.09 229.576)" fill="#DCE2EE"/>
<circle cx="1337.52" cy="296.831" r="5.67164" transform="rotate(-8.81526 1337.52 296.831)" fill="#DCE2EE"/>
<circle cx="1347.95" cy="364.087" r="5.67164" transform="rotate(-8.81526 1347.95 364.087)" fill="#DCE2EE"/>
<circle cx="1358.38" cy="431.343" r="5.67164" transform="rotate(-8.81526 1358.38 431.343)" fill="#DCE2EE"/>
<circle cx="1368.81" cy="498.599" r="5.67164" transform="rotate(-8.81526 1368.81 498.599)" fill="#DCE2EE"/>
<circle cx="1379.24" cy="565.854" r="5.67164" transform="rotate(-8.81526 1379.24 565.854)" fill="#DCE2EE"/>
<circle cx="1389.67" cy="633.11" r="5.67164" transform="rotate(-8.81526 1389.67 633.11)" fill="#DCE2EE"/>
<circle cx="1394.34" cy="219.146" r="5.67164" transform="rotate(-8.81526 1394.34 219.146)" fill="#DCE2EE"/>
<circle cx="1404.77" cy="286.401" r="5.67164" transform="rotate(-8.81526 1404.77 286.401)" fill="#DCE2EE"/>
<circle cx="1415.2" cy="353.657" r="5.67164" transform="rotate(-8.81526 1415.2 353.657)" fill="#DCE2EE"/>
<circle cx="1425.63" cy="420.913" r="5.67164" transform="rotate(-8.81526 1425.63 420.913)" fill="#DCE2EE"/>
<circle cx="1436.06" cy="488.169" r="5.67164" transform="rotate(-8.81526 1436.06 488.169)" fill="#DCE2EE"/>
<circle cx="1129.67" cy="318.164" r="133.851" fill="#FF6A6A"/>
<circle cx="1415.52" cy="727.657" r="11.3433" fill="#8C7AFF"/>
<circle cx="757.612" cy="614.224" r="13.6119" fill="#FF9A7A"/>
<circle cx="1300.96" cy="142.343" r="11.3433" fill="#6BF0A8"/>
<g filter="url(#filter0_d_2_637)">
<rect x="822.269" y="244.982" width="97.3968" height="97.3968" rx="20" transform="rotate(-12.1401 822.269 244.982)" fill="white"/>
</g>
<g filter="url(#filter1_d_2_637)">
<rect x="838.102" y="255.209" width="70.7409" height="70.7409" rx="20" transform="rotate(-12.1401 838.102 255.209)" fill="white"/>
</g>
<rect x="855.161" y="268.213" width="19.4794" height="9.73968" rx="4" transform="rotate(-12.1401 855.161 268.213)" fill="#545AE8"/>
<rect width="19.4794" height="9.73968" rx="4" transform="matrix(0.977636 -0.210303 -0.210303 -0.977636 885.435 300.886)" fill="#545AE8"/>
<rect x="857.755" y="280.274" width="19.4794" height="25.9725" rx="4" transform="rotate(-12.1401 857.755 280.274)" fill="#545AE8"/>
<rect width="19.4794" height="25.9725" rx="4" transform="matrix(0.977636 -0.210303 -0.210303 -0.977636 882.841 288.825)" fill="#C43539"/>
<g filter="url(#filter2_d_2_637)">
<rect x="1371.69" y="302.283" width="96.5408" height="96.5408" rx="20" transform="rotate(9.91602 1371.69 302.283)" fill="white"/>
</g>
<g filter="url(#filter3_d_2_637)">
<rect x="1382.43" y="317.573" width="70.1191" height="70.1191" rx="20" transform="rotate(9.91602 1382.43 317.573)" fill="white"/>
</g>
<g clip-path="url(#clip0_2_637)">
<path d="M1405.7 358.402C1405.3 360.683 1406.81 362.853 1409.08 363.249C1411.35 363.645 1413.51 362.118 1413.91 359.837C1414.3 357.556 1412.79 355.387 1410.52 354.99C1408.26 354.594 1406.1 356.121 1405.7 358.402ZM1420.06 360.913C1419.66 363.194 1421.18 365.364 1423.44 365.76C1425.71 366.156 1427.87 364.629 1428.27 362.348C1428.67 360.068 1427.16 357.898 1424.89 357.502C1422.62 357.105 1420.46 358.633 1420.06 360.913ZM1394.71 360.738C1396.98 361.134 1399.14 359.607 1399.54 357.326C1399.94 355.045 1398.43 352.875 1396.16 352.479C1393.89 352.083 1391.73 353.61 1391.33 355.891C1390.93 358.172 1392.45 360.342 1394.71 360.738ZM1425.14 368.184L1421.03 367.466C1418.77 367.07 1416.6 368.597 1416.21 370.878L1415.84 372.942C1415.65 374.083 1416.4 375.168 1417.54 375.366L1425.74 376.801C1426.88 376.999 1427.96 376.235 1428.16 375.095L1428.52 373.03C1428.92 370.75 1427.4 368.58 1425.14 368.184ZM1410.77 365.672L1406.67 364.955C1404.4 364.559 1402.24 366.086 1401.84 368.367L1401.48 370.431C1401.28 371.571 1402.04 372.657 1403.17 372.855L1411.38 374.29C1412.51 374.488 1413.59 373.724 1413.79 372.584L1414.15 370.519C1414.55 368.238 1413.04 366.069 1410.77 365.672ZM1396.41 363.161L1392.3 362.444C1390.04 362.047 1387.87 363.575 1387.48 365.855L1387.11 367.92C1386.92 369.06 1387.67 370.145 1388.81 370.343L1397.01 371.778C1398.15 371.977 1399.23 371.213 1399.43 370.073L1399.79 368.008C1400.19 365.727 1398.67 363.557 1396.41 363.161ZM1397.96 342.156L1426.69 347.178L1425.25 355.437C1426.83 355.714 1428.15 356.584 1429.07 357.766L1430.96 346.966C1431.27 345.202 1430.14 343.525 1428.44 343.228L1397.66 337.847C1395.96 337.551 1394.33 338.745 1394.02 340.509L1392.13 351.308C1393.4 350.509 1394.94 350.138 1396.52 350.415L1397.96 342.156Z" fill="#545AE8"/>
</g>
</g>
<defs>
<filter id="filter0_d_2_637" x="782.023" y="198.254" width="196.192" height="196.192" filterUnits="userSpaceOnUse" color-interpolation-filters="sRGB">
<feFlood flood-opacity="0" result="BackgroundImageFix"/>
<feColorMatrix in="SourceAlpha" type="matrix" values="0 0 0 0 0 0 0 0 0 0 0 0 0 0 0 0 0 0 127 0" result="hardAlpha"/>
<feOffset dy="14"/>
<feGaussianBlur stdDeviation="22"/>
<feColorMatrix type="matrix" values="0 0 0 0 0.337255 0 0 0 0 0.356863 0 0 0 0 0.866667 0 0 0 0.1 0"/>
<feBlend mode="normal" in2="BackgroundImageFix" result="effect1_dropShadow_2_637"/>
<feBlend mode="normal" in="SourceGraphic" in2="effect1_dropShadow_2_637" result="shape"/>
</filter>
<filter id="filter1_d_2_637" x="797.856" y="216.087" width="164.527" height="164.527" filterUnits="userSpaceOnUse" color-interpolation-filters="sRGB">
<feFlood flood-opacity="0" result="BackgroundImageFix"/>
<feColorMatrix in="SourceAlpha" type="matrix" values="0 0 0 0 0 0 0 0 0 0 0 0 0 0 0 0 0 0 127 0" result="hardAlpha"/>
<feOffset dy="16"/>
<feGaussianBlur stdDeviation="22"/>
<feColorMatrix type="matrix" values="0 0 0 0 0.0509804 0 0 0 0 0.0588235 0 0 0 0 0.109804 0 0 0 0.1 0"/>
<feBlend mode="normal" in2="BackgroundImageFix" result="effect1_dropShadow_2_637"/>
<feBlend mode="normal" in="SourceGraphic" in2="effect1_dropShadow_2_637" result="shape"/>
</filter>
<filter id="filter2_d_2_637" x="1314.21" y="275.426" width="193.439" height="193.439" filterUnits="userSpaceOnUse" color-interpolation-filters="sRGB">
<feFlood flood-opacity="0" result="BackgroundImageFix"/>
<feColorMatrix in="SourceAlpha" type="matrix" values="0 0 0 0 0 0 0 0 0 0 0 0 0 0 0 0 0 0 127 0" result="hardAlpha"/>
<feOffset dy="14"/>
<feGaussianBlur stdDeviation="22"/>
<feColorMatrix type="matrix" values="0 0 0 0 0.337255 0 0 0 0 0.356863 0 0 0 0 0.866667 0 0 0 0.1 0"/>
<feBlend mode="normal" in2="BackgroundImageFix" result="effect1_dropShadow_2_637"/>
<feBlend mode="normal" in="SourceGraphic" in2="effect1_dropShadow_2_637" result="shape"/>
</filter>
<filter id="filter3_d_2_637" x="1329.5" y="292.715" width="162.863" height="162.862" filterUnits="userSpaceOnUse" color-interpolation-filters="sRGB">
<feFlood flood-opacity="0" result="BackgroundImageFix"/>
<feColorMatrix in="SourceAlpha" type="matrix" values="0 0 0 0 0 0 0 0 0 0 0 0 0 0 0 0 0 0 127 0" result="hardAlpha"/>
<feOffset dy="16"/>
<feGaussianBlur stdDeviation="22"/>
<feColorMatrix type="matrix" values="0 0 0 0 0.0509804 0 0 0 0 0.0588235 0 0 0 0 0.109804 0 0 0 0.1 0"/>
<feBlend mode="normal" in2="BackgroundImageFix" result="effect1_dropShadow_2_637"/>
<feBlend mode="normal" in="SourceGraphic" in2="effect1_dropShadow_2_637" result="shape"/>
</filter>
<clipPath id="clip0_2_637">
<rect width="41.665" height="33.5352" fill="white" transform="translate(1392.53 336.95) rotate(9.91602)"/>
</clipPath>
</defs>
</svg>
